<?xml version="1.0" encoding="utf-8"?>
<!-- Generator: Adobe Illustrator 25.4.1, SVG Export Plug-In . SVG Version: 6.00 Build 0)  -->
<svg version="1.1" id="Layer_1" xmlns="http://www.w3.org/2000/svg" xmlns:xlink="http://www.w3.org/1999/xlink" x="0px" y="0px"
	 viewBox="0 0 1161.19 432" style="enable-background:new 0 0 1161.19 432;" xml:space="preserve">
<style type="text/css">
	.st0{fill:#42197E;}
	.st1{fill:#D53383;}
</style>
<g>
	<path class="st0" d="M116.41,163.26c2.1-6.75,2.72-13.79,4.02-20.7c0.45-2.4,1.31-2.96,3.58-2.96c32.02,0.06,64.05,0.08,96.07-0.02
		c2.95-0.01,3.2,0.94,2.71,3.42c-1.22,6.27-2.3,12.56-3.22,18.88c-0.36,2.46-1.07,3.51-3.88,3.45c-9.7-0.21-19.4,0-29.1-0.14
		c-2.22-0.03-3.03,0.71-3.39,2.77c-5.65,32.35-11.38,64.7-17.04,97.05c-1.08,6.18-1,6.19-7.17,6.2c-7.83,0-15.66-0.07-23.49,0.04
		c-2.35,0.03-2.84-0.48-2.4-2.94c4.95-27.3,9.75-54.62,14.57-81.94c1.11-6.28,2.06-12.6,3.33-18.85c0.43-2.09-0.24-2.32-2-2.3
		c-10.87,0.08-21.73,0.09-32.6,0.12C116.41,164.65,116.41,163.95,116.41,163.26z"/>
	<path class="st0" d="M744.29,246.66c-1.73,9.72-3.3,18.49-4.86,27.26c-2.84,16.01-5.69,32.01-8.51,48.02
		c-0.34,1.93-1.02,2.89-3.35,2.84c-8.3-0.18-16.61-0.29-24.9,0.03c-3.55,0.14-3.67-1.17-3.16-3.91c2.61-14.16,5.12-28.34,7.65-42.52
		c4.65-26.06,9.35-52.12,13.85-78.2c0.44-2.54,1.49-2.86,3.64-2.84c8.42,0.09,16.84,0.13,25.25-0.03c2.34-0.04,3.48,0.7,4.48,2.79
		c11.53,24.08,23.17,48.11,34.78,72.15c0.43,0.88,0.94,1.73,1.79,3.26c2.32-12.99,4.5-25.15,6.68-37.32
		c2.28-12.8,4.6-25.59,6.79-38.4c0.32-1.85,0.94-2.48,2.85-2.45c8.88,0.1,17.77,0.08,26.66,0.02c1.85-0.01,2.25,0.31,1.88,2.35
		c-5.18,28.8-10.21,57.63-15.29,86.46c-2.01,11.43-4.2,22.84-5.99,34.31c-0.54,3.43-1.75,4.46-5.23,4.33
		c-7.94-0.29-15.9-0.2-23.85-0.02c-2.49,0.06-3.65-0.78-4.71-2.99c-11.71-24.38-23.54-48.71-35.35-73.05
		C745.22,248.32,744.98,247.93,744.29,246.66z"/>
	<path class="st0" d="M316.95,150.14c-8.57-8.22-19.4-10.3-30.69-10.44c-17.18-0.22-34.37,0.09-51.55-0.17
		c-3.86-0.06-4.8,1.35-5.33,4.7c-1.84,11.47-3.96,22.88-5.99,34.31c-5.32,30.07-10.61,60.15-16.03,90.21
		c-0.4,2.24,0.23,2.51,2.17,2.49c8.88-0.07,17.77-0.14,26.65,0.04c2.6,0.05,3.35-0.91,3.75-3.26c2.51-14.65,5.14-29.27,7.75-43.91
		c0.2-1.09,0.15-2.24,1.78-2.56c4.46-0.88,6.3,0.08,7.85,4.26c5.3,14.24,10.69,28.45,15.91,42.71c0.78,2.12,1.84,2.81,4.06,2.74
		c5.02-0.17,10.06-0.05,15.08-0.05c0,0,0,0.01,0,0.01c5.03,0,10.06-0.13,15.08,0.05c2.76,0.09,3.34-0.3,2.16-3.13
		c-6.36-15.2-12.44-30.51-18.73-45.74c-0.93-2.27-1.2-3.21,1.78-4.22c17.18-5.8,28.5-17.34,32.55-35.16
		C327.96,170.83,326.56,159.36,316.95,150.14z M292.22,183.73c-2.31,9.21-8.54,14.44-18.15,15.01c-3.26,0.2-6.53,0.03-9.8,0.03v0.1
		c-3.38,0-6.76-0.08-10.15,0.03c-1.59,0.05-1.96-0.43-1.68-1.96c1.75-9.69,3.42-19.39,5.12-29.09c0.16-0.94,0.34-1.82,1.66-1.79
		c7.69,0.2,15.45-0.77,23.05,0.45C291.11,167.92,294.56,174.37,292.22,183.73z"/>
	<path class="st0" d="M704.48,246.05c-0.38-21.78-12.22-39.19-31.96-46.76c-11.05-4.24-22.55-4.68-34.13-3.16
		c-19.04,2.5-35.18,10.61-47.35,25.61c-14.29,17.61-19.14,38.11-16.29,60.16c2.6,20.08,13.83,34.17,33.25,41.04
		c10.55,3.74,21.51,3.83,32.51,2.35c16.99-2.29,31.72-9.23,43.5-21.72c14.28-15.15,20.26-33.53,20.47-54.03
		C704.48,248.38,704.5,247.21,704.48,246.05z M673.36,252.41c-0.86,17.65-6.91,32.45-23.48,41.11c-7.84,4.09-16.36,4.74-24.91,2.85
		c-9.92-2.2-16.08-8.55-18.57-18.31c-4.2-16.36,3.02-36.6,16.71-46.69c9.16-6.76,19.51-8.73,30.55-6.44
		c11.98,2.48,19.34,12.09,19.69,25.04C673.38,250.78,673.36,251.59,673.36,252.41z"/>
	<path class="st1" d="M409.54,169.26c-4.6,8.71-9.21,17.41-13.79,26.12c-12.78,24.28-25.58,48.55-38.27,72.87
		c-1.07,2.06-2.3,2.75-4.6,2.71c-9.21-0.14-18.41-0.06-28.26-0.06c3.22-6.11,6.18-11.72,9.14-17.34
		c19.49-37.03,39-74.05,58.41-111.12c1.07-2.05,2.24-2.76,4.55-2.73c11.22,0.13,22.44,0.15,33.66-0.01
		c2.74-0.04,3.51,0.87,3.92,3.46c5.24,33.39,10.61,66.76,15.93,100.14c4.22,26.49,8.39,52.99,12.65,79.47
		c0.41,2.56-0.15,3.47-2.96,3.4c-7.36-0.2-14.73-0.13-22.09-0.03c-2.03,0.03-2.74-0.55-3.06-2.64c-3.62-23.41-7.38-46.8-11.1-70.19
		c-2.63-16.51-5.28-33.02-7.91-49.53c-1.83-11.46-3.64-22.93-5.46-34.39C410.04,169.35,409.79,169.3,409.54,169.26z"/>
	<path class="st1" d="M519.12,326.08c-13.29-0.04-26.58-0.09-39.88-0.13c-4.51-28.57-8.99-57.14-13.54-85.71
		c-4.06-25.46-8.2-50.91-12.28-76.37c-1.16-7.23-2.12-14.49-3.36-21.7c-0.35-2.06,0.37-2.43,2.13-2.42
		c7.72,0.04,15.44,0.12,23.15-0.03c2.32-0.04,2.71,1.21,2.98,2.91c1.86,11.7,3.74,23.4,5.58,35.11c2.69,17.1,5.33,34.2,8.03,51.29
		c3.46,21.91,6.94,43.82,10.43,65.74c0.09,0.55,0.29,1.08,0.54,1.97c1.65-1.33,2.13-3.02,2.89-4.47
		c16.65-31.57,33.28-63.15,49.87-94.76c0.85-1.62,1.81-2.44,3.76-2.42c8.65,0.09,17.31,0.1,25.96,0c2.6-0.03,2.64,0.7,1.56,2.75
		c-18.25,34.55-36.41,69.14-54.65,103.69C527.95,309.75,523.96,318.14,519.12,326.08z"/>
	<path class="st0" d="M858.89,197.37c4.33,0,8.66,0.16,12.97-0.06c2.45-0.12,2.63,0.8,2.27,2.8c-2.95,16.34-5.87,32.69-8.75,49.05
		c-1.65,9.38-3.34,18.75-4.77,28.16c-1.71,11.31,4.4,18.75,15.82,19.62c15.46,1.17,26.38-7.33,29.17-22.91
		c4.34-24.23,8.62-48.48,12.77-72.74c0.52-3.07,1.52-4.12,4.8-4.01c8.29,0.29,16.6,0.08,24.9,0.12c1.14,0,2.67-0.57,2.23,1.8
		c-4.75,26.16-8.63,52.5-14.33,78.45c-6.83,31.13-31.31,49.08-63.34,48.44c-12.14-0.24-23.43-2.88-32.59-11.31
		c-9.97-9.17-12.22-21.11-10.99-33.84c1.49-15.51,5.03-30.71,7.57-46.07c1.89-11.45,4.02-22.87,5.9-34.32
		c0.39-2.35,1.11-3.39,3.73-3.23C850.46,197.55,854.68,197.37,858.89,197.37z"/>
	<path class="st0" d="M1029.44,233.81c-4.68,0-9.35-0.03-14.03,0.02c-1.62,0.02-2.6,0.18-2.6-2.27c0.01-6.15-3.82-10.13-9.93-11.14
		c-3.53-0.58-7-0.37-10.34,0.92c-3.95,1.53-6.76,4.21-7.45,8.51c-0.7,4.41,0.94,8.01,4.49,10.68c4.3,3.24,9.11,5.63,13.98,7.88
		c6.13,2.84,12.19,5.81,18.11,9.07c27.45,15.09,22.16,49.12,0.4,60.79c-20.62,11.06-41.96,10.94-62.78,0.51
		c-11.95-5.99-16.67-16.66-15.8-29.87c0.12-1.76,0.61-2.4,2.44-2.38c9.35,0.07,18.7,0.07,28.06-0.01c1.81-0.01,2.25,0.58,2.41,2.36
		c0.7,7.69,4.03,11.08,11.77,12.31c3.77,0.6,7.49,0.23,11.02-1.14c8-3.1,9.83-12.56,3.53-18.41c-3.63-3.37-8.19-5.3-12.65-7.31
		c-6.68-3.01-13.45-5.82-20.01-9.13c-27.4-13.84-21.86-47.71-3.06-60.28c12.45-8.33,26.27-10.34,40.81-9.2
		c10.2,0.8,19.77,3.51,27.74,10.25c7.97,6.74,11.06,15.55,10.59,25.79c-0.08,1.73-0.78,2.09-2.35,2.06
		C1039.03,233.75,1034.23,233.81,1029.44,233.81z"/>
</g>
</svg>
